<?xml version="1.0" standalone="no"?>
<!DOCTYPE svg PUBLIC "-//W3C//DTD SVG 20010904//EN"
 "http://www.w3.org/TR/2001/REC-SVG-20010904/DTD/svg10.dtd">
<svg version="1.0" xmlns="http://www.w3.org/2000/svg"
 width="100.000000pt" height="100.000000pt" viewBox="0 0 100.000000 100.000000"
 preserveAspectRatio="xMidYMid meet">
<metadata>
Created by potrace 1.16, written by Peter Selinger 2001-2019
</metadata>
<g transform="translate(0.000000,100.000000) scale(0.100000,-0.100000)"
fill="#000000" stroke="none">
<path d="M132 973 c-35 -14 -42 -58 -42 -265 0 -165 4 -217 19 -278 11 -41 18
-76 18 -76 -1 -1 -24 -5 -52 -10 -40 -7 -50 -13 -50 -29 0 -19 6 -20 75 -16
84 4 85 -4 3 -34 -62 -22 -85 -47 -65 -67 9 -9 24 -6 69 15 32 14 68 29 81 32
32 9 39 -18 13 -51 -11 -14 -18 -30 -15 -35 10 -17 42 -9 58 16 l17 26 29 -21
c15 -11 51 -28 79 -37 46 -14 51 -19 51 -45 0 -39 40 -78 81 -78 37 0 89 49
89 85 0 18 8 26 38 35 20 7 54 22 76 34 l39 21 14 -23 c16 -23 47 -30 58 -12
3 5 -4 23 -16 39 -42 56 -4 61 99 13 41 -19 56 -22 65 -13 20 20 -5 44 -66 66
-32 11 -57 24 -57 28 0 5 30 7 68 6 61 -4 67 -2 67 16 0 16 -10 22 -50 29 -27
5 -51 10 -53 11 -2 2 5 20 14 41 15 33 18 78 22 286 l4 247 -26 26 c-47 47
-84 33 -151 -60 -36 -51 -51 -65 -63 -59 -102 43 -242 43 -343 0 -12 -5 -28 9
-63 58 -58 81 -87 98 -134 79z m589 -452 c17 -13 23 -29 23 -56 0 -68 -80
-101 -131 -53 -71 67 32 171 108 109z"/>
</g>
</svg>
